<svg width="338" height="180" viewBox="0 0 338 180" fill="none" xmlns="http://www.w3.org/2000/svg">
<rect x="0.767975" y="1.04971" width="19.337" height="24.1713" rx="2" fill="#040D1F"/>
<rect x="0.767975" y="39.7238" width="19.337" height="24.1713" rx="2" fill="#040D1F"/>
<rect x="0.767975" y="78.3978" width="19.337" height="24.1713" rx="2" fill="#040D1F"/>
<rect x="0.767975" y="117.072" width="19.337" height="24.1713" rx="2" fill="#040D1F"/>
<rect x="0.767975" y="155.746" width="19.337" height="24.1713" rx="2" fill="#040D1F"/>
<path d="M317.895 2.08289C317.895 0.978317 318.79 0.0828857 319.895 0.0828857H335.232C336.337 0.0828857 337.232 0.978316 337.232 2.08289V22.2542C337.232 23.3587 336.337 24.2542 335.232 24.2542H319.895C318.79 24.2542 317.895 23.3587 317.895 22.2542V2.08289Z" fill="#040D1F"/>
<rect x="317.895" y="38.7569" width="19.337" height="24.1713" rx="2" fill="#040D1F"/>
<rect x="317.895" y="77.4309" width="19.337" height="24.1713" rx="2" fill="#040D1F"/>
<rect x="317.895" y="116.105" width="19.337" height="24.1713" rx="2" fill="#040D1F"/>
<rect x="317.895" y="154.779" width="19.337" height="24.1713" rx="2" fill="#040D1F"/>
</svg>
